Coordinates
version=1
nRows=18
nColumns=63
inDegrees=yes

Units are S.I. units (second, meters, Newtons, ...)
If the header above contains a line with 'inDegrees', this indicates whether rotational values are in degrees (yes) or radians (no).

endheader
time	pelvis_tilt	pelvis_list	pelvis_rotation	pelvis_tx	pelvis_ty	pelvis_tz	hip_flexion_r	hip_adduction_r	hip_rotation_r	knee_angle_r	knee_angle_r_beta	ankle_angle_r	subtalar_angle_r	mtp_angle_r	hip_flexion_l	hip_adduction_l	hip_rotation_l	knee_angle_l	knee_angle_l_beta	ankle_angle_l	subtalar_angle_l	mtp_angle_l	L5_S1_Flex_Ext	L5_S1_Lat_Bending	L5_S1_axial_rotation	L4_L5_Flex_Ext	L4_L5_Lat_Bending	L4_L5_axial_rotation	L3_L4_Flex_Ext	L3_L4_Lat_Bending	L3_L4_axial_rotation	L2_L3_Flex_Ext	L2_L3_Lat_Bending	L2_L3_axial_rotation	L1_L2_Flex_Ext	L1_L2_Lat_Bending	L1_L2_axial_rotation	L1_T12_Flex_Ext	L1_T12_Lat_Bending	L1_T12_axial_rotation	Abs_r3	Abs_r2	Abs_r1	Abs_t1	Abs_t2	neck_flexion	neck_bending	neck_rotation	arm_flex_r	arm_add_r	arm_rot_r	elbow_flex_r	pro_sup_r	wrist_flex_r	wrist_dev_r	arm_flex_l	arm_add_l	arm_rot_l	elbow_flex_l	pro_sup_l	wrist_flex_l	wrist_dev_l
0.847458	1.175972	-4.094013	86.670231	0.341155	0.973737	0.569115	1.786017	0.332323	23.109756	3.258980	0.056880	24.253788	-15.596406	0.000000	3.006069	-3.801635	1.345005	2.445536	0.042683	33.597207	7.617675	0.000000	0.090253	0.340072	-0.025340	0.167609	0.452296	-0.026924	0.148277	0.826851	-0.026924	0.103150	0.826851	-0.022172	0.083809	0.693475	-0.020589	0.051571	0.526772	-0.019005	0.644669	3.846964	-0.140932	0.000000	0.000000	27.733451	-2.662500	-1.837544	2.027318	-15.776443	41.274582	53.782201	21.221466	11.344043	18.460335	12.418159	-11.214044	56.666734	48.993691	61.651971	9.297518	-1.541203
0.864407	1.108316	-4.053063	86.620851	0.341409	0.973688	0.569187	1.772555	0.270261	23.196149	3.300275	0.057601	24.346198	-15.468903	0.000000	2.965631	-3.748215	1.086389	2.446951	0.042707	33.645606	7.833453	0.000000	0.089814	0.335495	0.026073	0.166794	0.446208	0.027702	0.147556	0.815723	0.027702	0.102649	0.815723	0.022814	0.083401	0.684141	0.021184	0.051320	0.519682	0.019555	0.641533	3.795187	0.145009	0.000000	0.000000	27.729210	-3.268706	-2.738000	2.251563	-15.997894	41.852952	53.658050	20.337469	11.834966	18.078770	12.732902	-11.141718	57.325416	48.849020	61.001395	9.434412	-1.445633
0.881356	1.068842	-4.020711	86.640589	0.341563	0.973641	0.569323	1.759112	0.233435	23.267121	3.323783	0.058011	24.407130	-15.418355	0.000000	2.955488	-3.717089	0.967721	2.479100	0.043268	33.676388	7.946263	0.000000	0.089133	0.333154	0.070584	0.165528	0.443095	0.074996	0.146436	0.810031	0.074996	0.101870	0.810031	0.061761	0.082768	0.679368	0.057350	0.050930	0.516056	0.052938	0.636665	3.768707	0.392569	0.000000	0.000000	27.711152	-3.846779	-3.632520	2.501293	-16.216154	42.451685	53.518383	19.328949	12.364443	17.842174	13.134947	-11.063057	58.154194	48.642071	60.284301	9.611157	-1.455468
0.898305	1.060870	-3.962970	86.673126	0.341690	0.973637	0.569505	1.724247	0.225918	23.178805	3.354511	0.058547	24.540621	-15.168508	0.000000	2.915745	-3.712793	0.922599	2.511951	0.043842	33.685139	7.965745	0.000000	0.082323	0.333635	0.112205	0.152882	0.443735	0.119218	0.135248	0.811201	0.119218	0.094087	0.811201	0.098179	0.076445	0.680349	0.091166	0.047039	0.516801	0.084154	0.588024	3.774148	0.624049	0.000000	0.000000	27.687782	-4.377606	-4.489633	2.768687	-16.431095	43.059360	53.378449	18.528325	12.881589	17.592976	13.567446	-10.982152	58.969912	48.416592	59.576954	9.898843	-1.363860
0.915254	1.083866	-3.893528	86.763950	0.341737	0.973660	0.569696	1.664412	0.246608	23.051687	3.364520	0.058722	24.667924	-14.969391	0.000000	2.867283	-3.732395	1.082545	2.545161	0.044421	33.660975	7.792702	0.000000	0.073201	0.337567	0.136993	0.135942	0.448964	0.145556	0.120262	0.820759	0.145556	0.083662	0.820759	0.119869	0.067975	0.688366	0.111307	0.041827	0.522891	0.102745	0.522869	3.818621	0.761917	0.000000	0.000000	27.656248	-4.868395	-5.266113	3.034586	-16.616774	43.645295	53.239887	17.800613	13.326753	17.444129	14.004713	-10.908662	59.787014	48.177505	58.840669	10.231765	-1.252369
0.932203	1.131705	-3.812299	86.887486	0.341738	0.973710	0.569863	1.578159	0.289793	22.909712	3.350882	0.058484	24.789706	-14.827831	0.000000	2.805963	-3.773578	1.328810	2.580185	0.045033	33.631349	7.550615	0.000000	0.062228	0.344681	0.145449	0.115563	0.458426	0.154540	0.102234	0.838057	0.154540	0.071120	0.838057	0.127268	0.057785	0.702873	0.118177	0.035557	0.533911	0.109087	0.444485	3.899099	0.808943	0.000000	0.000000	27.618465	-5.316432	-5.932874	3.290076	-16.766088	44.199145	53.099743	17.167726	13.683519	17.385601	14.418435	-10.844528	60.567191	47.937866	58.080093	10.575687	-1.137335
0.949153	1.196423	-3.724089	87.029621	0.341725	0.973786	0.569964	1.467838	0.348684	22.777302	3.311617	0.057799	24.894942	-14.760878	0.000000	2.731265	-3.830575	1.625869	2.610510	0.045562	33.603551	7.271327	0.000000	0.050842	0.354165	0.139410	0.094419	0.471039	0.148123	0.083529	0.861116	0.148123	0.058108	0.861116	0.121984	0.047212	0.722213	0.113270	0.029051	0.548601	0.104557	0.363162	4.006383	0.775355	0.000000	0.000000	27.578157	-5.721441	-6.484083	3.527462	-16.875637	44.722120	52.947848	16.655534	13.975713	17.373576	14.799190	-10.793298	61.329993	47.710897	57.261043	10.868178	-1.052752
0.966102	1.269150	-3.631248	87.190924	0.341716	0.973886	0.569970	1.333943	0.416023	22.645472	3.246359	0.056660	24.984026	-14.757133	0.000000	2.641665	-3.895416	1.969448	2.626103	0.045834	33.578153	6.964695	0.000000	0.039664	0.364806	0.116627	0.073661	0.485192	0.123917	0.065165	0.886989	0.123917	0.045332	0.886989	0.102049	0.036832	0.743912	0.094760	0.022664	0.565084	0.087471	0.283319	4.126756	0.648646	0.000000	0.000000	27.537991	-6.066914	-6.901867	3.768545	-16.950879	45.279761	52.776484	16.189409	14.201287	17.365288	15.124530	-10.765364	62.049950	47.521429	56.396051	11.037930	-1.032839
0.983051	1.340624	-3.537142	87.361380	0.341733	0.974008	0.569847	1.177293	0.483461	22.538163	3.152332	0.055019	25.051329	-14.823963	0.000000	2.536576	-3.960857	2.318439	2.620668	0.045739	33.558009	6.670719	0.000000	0.029618	0.375255	0.078900	0.055004	0.499089	0.083831	0.048660	0.912394	0.083831	0.033850	0.912394	0.069038	0.027503	0.765219	0.064106	0.016924	0.581269	0.059175	0.211559	4.244955	0.438819	0.000000	0.000000	27.500884	-6.341367	-7.177292	4.021205	-16.998317	45.905623	52.586508	15.743522	14.347967	17.333755	15.373930	-10.763859	62.684506	47.385680	55.546658	11.058702	-1.068276
1.000000	1.405288	-3.443947	87.514329	0.341815	0.974151	0.569584	1.003393	0.546632	22.471051	3.033952	0.052952	25.103476	-14.939394	0.000000	2.412177	-4.022885	2.614264	2.587837	0.045166	33.550190	6.430646	0.000000	0.020944	0.384521	0.033181	0.038896	0.511412	0.035255	0.034410	0.934923	0.035255	0.023937	0.934923	0.029033	0.019449	0.784114	0.026960	0.011968	0.595622	0.024886	0.149604	4.349773	0.184543	0.000000	0.000000	27.467991	-6.559578	-7.335505	4.299672	-17.032101	46.647139	52.367731	15.245358	14.466872	17.230970	15.545259	-10.788531	63.229126	47.305924	54.787745	10.898457	-1.187504
1.016949	1.460539	-3.347303	87.642942	0.341976	0.974314	0.569169	0.804901	0.601902	22.509503	2.885582	0.050363	25.115436	-15.170180	0.000000	2.259977	-4.078678	2.916978	2.521160	0.044003	33.544330	6.161978	0.000000	0.012920	0.392010	-0.019348	0.023993	0.521373	-0.020557	0.021225	0.953132	-0.020557	0.014766	0.953132	-0.016930	0.011997	0.799386	-0.015720	0.007382	0.607223	-0.014511	0.092283	4.434491	-0.107609	0.000000	0.000000	27.440828	-6.708454	-7.361767	4.598883	-17.057902	47.487642	52.137706	14.809476	14.514749	17.012019	15.604720	-10.837359	63.570723	47.303980	54.273389	10.597111	-1.300564
1.033898	1.505545	-3.254868	87.761075	0.342196	0.974485	0.568632	0.599769	0.651031	22.504799	2.727804	0.047609	25.144560	-15.337392	0.000000	2.094828	-4.128326	3.179849	2.425202	0.042328	33.548524	5.938378	0.000000	0.006819	0.397173	-0.074241	0.012664	0.528241	-0.078881	0.011203	0.965687	-0.078881	0.007794	0.965687	-0.064961	0.006332	0.809916	-0.060321	0.003897	0.615222	-0.055681	0.048710	4.492905	-0.412908	0.000000	0.000000	27.418002	-6.813608	-7.315813	4.884738	-17.064640	48.322043	51.874664	14.410303	14.600538	16.740906	15.579418	-10.899754	63.769223	47.338743	54.084993	10.180290	-1.519778
1.050847	1.537339	-3.162112	87.848356	0.342498	0.974656	0.567989	0.383750	0.689863	22.557852	2.556203	0.044614	25.151124	-15.544838	0.000000	1.911625	-4.169483	3.380109	2.304264	0.040217	33.566671	5.764830	0.000000	0.002071	0.399706	-0.128614	0.003846	0.531609	-0.136652	0.003403	0.971846	-0.136652	0.002367	0.971846	-0.112537	0.001923	0.815081	-0.104499	0.001183	0.619145	-0.096461	0.014794	4.521558	-0.715313	0.000000	0.000000	27.396997	-6.856674	-7.180847	5.149153	-17.062464	49.133721	51.619301	14.133733	14.617471	16.374208	15.423194	-10.966471	63.681012	47.431688	54.351913	9.721848	-1.729576
1.067797	1.554752	-3.063837	87.906920	0.342881	0.974828	0.567281	0.159808	0.716429	22.627315	2.386623	0.041654	25.152073	-15.730977	0.000000	1.712402	-4.200292	3.533533	2.168152	0.037841	33.591265	5.617014	0.000000	-0.002406	0.399191	-0.177441	-0.004468	0.530923	-0.188532	-0.003952	0.970592	-0.188532	-0.002750	0.970592	-0.155261	-0.002234	0.814029	-0.144171	-0.001375	0.618346	-0.133081	-0.017184	4.515724	-0.986876	0.000000	0.000000	27.377197	-6.867801	-7.020015	5.366488	-17.041477	49.829874	51.366433	14.079400	14.620666	15.937195	15.161445	-11.028519	63.356627	47.557750	55.042110	9.262825	-1.955968
1.084746	1.555703	-2.948652	87.904282	0.343376	0.974995	0.566532	-0.057099	0.727366	22.516073	2.271233	0.039641	25.263195	-15.560982	0.000000	1.481515	-4.217862	3.575882	2.019764	0.035252	33.635460	5.533667	0.000000	-0.008779	0.395862	-0.214028	-0.016304	0.526497	-0.227405	-0.014423	0.962500	-0.227405	-0.010034	0.962500	-0.187275	-0.008152	0.807243	-0.173898	-0.005016	0.613191	-0.160521	-0.062709	4.478075	-1.190360	0.000000	0.000000	27.365556	-6.790893	-6.782914	5.516185	-17.009462	50.351260	51.152416	14.495198	14.558966	15.386700	14.804820	-11.091801	62.814762	47.746848	56.030390	8.797585	-2.097326
1.101695	1.533211	-2.843206	87.859754	0.343945	0.975138	0.565749	-0.281099	0.716101	22.706872	2.124229	0.037075	25.193363	-15.782642	0.000000	1.247858	-4.212283	3.642918	1.853696	0.032353	33.651472	5.377428	0.000000	-0.011946	0.388992	-0.236732	-0.022185	0.517360	-0.251528	-0.019626	0.945796	-0.251528	-0.013653	0.945796	-0.207141	-0.011093	0.793233	-0.192345	-0.006826	0.602549	-0.177549	-0.085329	4.400358	-1.316633	0.000000	0.000000	27.347789	-6.707236	-6.568939	5.597451	-16.978621	50.749616	50.973571	15.047774	14.419139	14.773201	14.384261	-11.132041	62.130725	47.934880	57.263222	8.422861	-2.189101
1.118644	1.488164	-2.743931	87.782270	0.344574	0.975253	0.564979	-0.486372	0.683862	22.806713	2.006465	0.035019	25.137208	-15.834323	0.000000	1.024759	-4.187979	3.580504	1.702341	0.029711	33.681651	5.356674	0.000000	-0.013731	0.378529	-0.242030	-0.025499	0.503443	-0.257157	-0.022558	0.920355	-0.257157	-0.015693	0.920355	-0.211776	-0.012750	0.771896	-0.196649	-0.007846	0.586341	-0.181522	-0.098076	4.281993	-1.346097	0.000000	0.000000	27.331618	-6.617746	-6.408665	5.594532	-16.942293	50.947586	50.821129	15.802623	14.294615	14.181481	13.957712	-11.146143	61.411225	48.094144	58.582131	8.201411	-2.230235
1.135593	1.422184	-2.651601	87.668643	0.345265	0.975340	0.564231	-0.674743	0.632152	22.937351	1.911628	0.033364	25.039582	-15.895041	0.000000	0.807516	-4.141699	3.554987	1.558214	0.027196	33.678378	5.250440	0.000000	-0.014373	0.364735	-0.231661	-0.026692	0.485097	-0.246139	-0.023613	0.886816	-0.246139	-0.016427	0.886816	-0.202703	-0.013347	0.743767	-0.188224	-0.008213	0.564974	-0.173745	-0.102665	4.125952	-1.288427	0.000000	0.000000	27.318939	-6.509061	-6.286258	5.536221	-16.914498	51.038166	50.703622	16.655172	14.151181	13.589788	13.535372	-11.142607	60.679036	48.235320	59.856653	8.143184	-2.163537
